<?xml version="1.0" standalone="no"?>
<!DOCTYPE svg PUBLIC "-//W3C//DTD SVG 20010904//EN"
 "http://www.w3.org/TR/2001/REC-SVG-20010904/DTD/svg10.dtd">
<svg version="1.0" xmlns="http://www.w3.org/2000/svg"
 width="128.000000pt" height="106.000000pt" viewBox="0 0 128.000000 106.000000"
 preserveAspectRatio="xMidYMid meet">

<g transform="translate(0.000000,106.000000) scale(0.100000,-0.100000)"
fill="#000000" stroke="none">
<path d="M222 891 c-22 -13 -191 -704 -192 -778 0 -34 4 -64 9 -67 4 -3 43 6
85 20 l76 26 72 -25 73 -24 74 25 74 25 73 -26 74 -26 74 26 73 26 74 -25 74
-25 73 24 72 25 73 -25 c39 -13 78 -22 85 -20 8 3 12 26 12 66 -1 74 -170 765
-192 778 -7 5 -195 9 -418 9 -223 0 -411 -4 -418 -9z m173 -128 c-4 -43 -9
-80 -11 -82 -2 -2 -24 2 -48 9 -41 11 -68 10 -109 -6 -13 -4 -12 7 5 75 l20
81 75 0 75 0 -7 -77z m215 -4 c0 -79 0 -80 -22 -72 -30 10 -97 10 -127 -1 -23
-8 -23 -8 -17 45 15 117 8 109 92 109 l74 0 0 -81z m214 49 c3 -18 8 -55 11
-81 6 -48 6 -49 -17 -40 -29 10 -96 10 -125 0 -23 -8 -23 -7 -23 72 l0 81 75
0 74 0 5 -32z m224 -49 c17 -68 18 -79 5 -75 -41 16 -68 17 -109 6 -24 -7 -46
-11 -49 -9 -2 3 -7 39 -11 82 l-7 77 75 0 76 0 20 -81z m-683 -140 c15 -11 -4
-169 -20 -169 -6 0 -32 7 -56 15 -40 14 -50 14 -87 1 -49 -18 -49 -19 -24 78
l18 70 49 16 c49 17 90 13 120 -11z m245 -85 c0 -46 -4 -84 -9 -84 -5 0 -28 7
-52 15 -40 14 -48 14 -87 -1 -24 -9 -45 -14 -48 -12 -6 7 15 151 24 160 4 4
25 14 47 21 34 12 46 12 83 0 l42 -15 0 -84z m235 76 c7 -11 26 -152 21 -157
-2 -3 -25 3 -50 11 -40 14 -50 14 -87 1 -23 -8 -45 -15 -50 -15 -5 0 -9 38 -9
84 l0 84 43 15 c36 12 48 12 84 0 24 -8 45 -18 48 -23z m250 -43 c8 -27 17
-64 21 -83 l6 -34 -42 15 c-39 14 -48 14 -96 -2 -30 -9 -56 -14 -59 -11 -3 3
-6 42 -8 88 l-2 83 35 12 c28 9 44 9 83 -4 44 -14 48 -18 62 -64z m-799 -163
c22 -9 41 -20 44 -25 7 -10 -12 -175 -21 -183 -3 -3 -31 3 -62 13 -52 18 -61
19 -98 6 -69 -25 -69 -24 -47 67 12 46 26 88 32 95 11 12 81 41 102 42 6 1 29
-6 50 -15z m265 -1 l49 -18 0 -97 c0 -54 -2 -98 -5 -98 -2 0 -29 9 -58 20
l-55 21 -52 -21 c-29 -11 -55 -19 -58 -16 -2 3 2 47 9 98 l14 92 45 18 c57 21
53 21 111 1z m262 1 c26 -9 49 -19 51 -23 8 -12 28 -182 23 -187 -2 -3 -27 4
-55 15 -51 20 -51 20 -108 1 -31 -11 -59 -20 -61 -20 -1 0 -3 44 -3 98 l0 98
43 16 c55 21 56 21 110 2z m263 0 c27 -9 50 -18 51 -18 1 -1 13 -43 27 -94 27
-102 27 -102 -43 -77 -37 13 -46 12 -97 -5 -32 -11 -60 -20 -64 -20 -8 0 -27
179 -20 191 5 7 72 36 91 38 3 1 28 -6 55 -15z m-816 -259 l74 -25 77 25 76
26 72 -26 73 -26 71 26 72 26 75 -26 74 -25 77 25 76 26 57 -22 c73 -27 66
-36 -9 -13 -56 18 -58 18 -120 -4 -78 -27 -86 -27 -164 -1 l-64 22 -73 -23
-74 -24 -74 24 -73 23 -64 -22 c-78 -26 -86 -26 -164 1 -62 22 -64 22 -120 4
-31 -10 -59 -16 -61 -13 -4 4 90 44 107 46 3 1 39 -10 79 -24z"/>
</g>
</svg>
