<?xml version="1.0" standalone="no"?>
<!DOCTYPE svg PUBLIC "-//W3C//DTD SVG 20010904//EN"
 "http://www.w3.org/TR/2001/REC-SVG-20010904/DTD/svg10.dtd">
<svg version="1.0" xmlns="http://www.w3.org/2000/svg"
 width="215.000000pt" height="64.000000pt" viewBox="0 0 215.000000 64.000000"
 preserveAspectRatio="xMidYMid meet">

<g transform="translate(0.000000,64.000000) scale(0.100000,-0.100000)"
fill="#000000" stroke="none">
<path d="M181 473 c-44 -169 -81 -327 -81 -349 0 -25 2 -26 33 -19 17 5 46 7
62 6 17 -2 45 -3 63 -2 35 0 84 0 135 0 17 0 48 0 67 0 19 1 51 1 70 0 19 0
51 1 70 2 19 2 47 -1 63 -5 27 -8 27 -8 26 35 0 24 -19 116 -42 204 l-42 160
-207 3 -207 2 -10 -37z m97 -30 c-2 -28 -7 -37 -18 -34 -8 2 -27 3 -43 3 -24
-1 -26 2 -21 26 10 40 12 42 50 42 35 0 35 -1 32 -37z m102 0 c0 -38 0 -38
-40 -38 -42 0 -46 6 -34 53 5 17 14 22 40 22 33 0 34 -2 34 -37z m110 3 c0
-32 -3 -35 -29 -34 -15 1 -33 -2 -40 -6 -7 -5 -11 5 -11 33 l0 41 40 0 c39 0
40 -1 40 -34z m104 12 c10 -40 7 -47 -23 -46 -15 1 -33 -2 -40 -6 -6 -4 -11
-3 -11 2 0 5 -3 24 -6 41 -6 31 -6 31 34 31 33 0 41 -4 46 -22z m-326 -83 c2
-2 1 -22 -3 -45 -6 -36 -9 -40 -28 -34 -12 4 -34 7 -49 6 -26 -2 -26 -1 -17
30 11 42 37 61 69 53 14 -4 27 -8 28 -10z m96 9 c11 -4 16 -19 16 -50 0 -41
-1 -43 -22 -35 -13 5 -33 5 -45 0 -21 -8 -23 -6 -23 32 0 32 4 41 23 49 28 11
32 11 51 4z m118 -6 c9 -7 19 -30 23 -52 6 -35 5 -38 -12 -31 -23 10 -33 10
-60 1 -22 -7 -23 -4 -23 38 0 34 4 46 18 49 30 8 38 7 54 -5z m105 6 c15 -4
26 -18 33 -43 14 -50 13 -52 -12 -42 -13 5 -34 4 -47 -1 -29 -11 -28 -11 -32
35 -4 48 13 63 58 51z m-355 -113 c20 -8 23 -14 20 -53 l-4 -45 -59 1 c-47 1
-58 4 -54 16 2 8 7 28 11 43 4 16 16 32 28 37 28 11 31 12 58 1z m126 3 c19
-5 22 -13 22 -53 l0 -47 -56 0 -56 0 6 29 c3 16 6 36 6 44 0 7 10 18 23 23 28
11 27 11 55 4z m142 -14 c12 -12 20 -33 20 -52 l0 -33 -55 -1 -55 0 0 42 c0
62 48 86 90 44z m114 10 c21 -8 46 -56 46 -90 0 -3 -24 -5 -54 -6 -47 0 -55 3
-60 20 -11 42 -6 74 12 79 28 8 30 7 56 -3z m-377 -127 c17 -3 45 -1 62 5 21
8 39 7 60 -1 23 -8 41 -8 72 0 29 7 51 8 75 0 24 -7 44 -7 70 1 25 7 44 7 65
0 17 -6 28 -12 26 -14 -2 -3 -16 0 -30 5 -19 8 -36 6 -61 -4 -29 -12 -40 -13
-73 -1 -30 10 -45 11 -73 1 -27 -9 -43 -9 -70 0 -27 9 -43 9 -70 0 -27 -9 -43
-9 -70 0 -23 8 -44 9 -59 3 -13 -4 -26 -6 -29 -3 -8 8 42 24 58 19 8 -3 29 -8
47 -11z"/>
<path d="M807 453 c-4 -3 -7 -55 -7 -115 0 -87 3 -108 14 -108 10 0 16 13 18
42 4 60 28 63 28 3 0 -39 3 -46 18 -43 14 3 17 17 20 96 3 110 -5 132 -52 132
-18 0 -36 -3 -39 -7z m53 -63 c0 -20 -5 -30 -15 -30 -10 0 -15 10 -15 30 0 20
5 30 15 30 10 0 15 -10 15 -30z"/>
<path d="M920 358 c0 -57 4 -109 9 -116 5 -8 23 -12 47 -10 l39 3 3 113 c2 94
0 112 -12 112 -12 0 -16 -19 -18 -97 -2 -66 -7 -98 -15 -101 -10 -3 -13 21
-13 97 0 94 -1 101 -20 101 -19 0 -20 -7 -20 -102z"/>
<path d="M1054 447 c-2 -7 -3 -58 -2 -113 l3 -99 48 -3 47 -3 0 70 c0 70 -3
77 -34 65 -13 -5 -15 -16 -10 -56 6 -41 4 -50 -7 -46 -10 3 -15 27 -17 81 -2
64 0 77 13 77 8 0 15 -7 15 -16 0 -11 5 -14 16 -10 9 3 18 6 20 6 9 0 3 37 -8
48 -16 16 -77 15 -84 -1z"/>
<path d="M1181 447 c-7 -7 -11 -53 -11 -114 0 -96 1 -103 20 -103 19 0 20 7
20 95 0 78 3 95 15 95 12 0 15 -17 15 -95 0 -78 3 -95 15 -95 12 0 15 17 15
95 0 78 3 95 15 95 12 0 15 -17 15 -95 0 -88 1 -95 20 -95 19 0 20 7 20 104 0
71 -4 107 -12 113 -18 14 -133 14 -147 0z"/>
<path d="M1372 448 c-8 -8 -12 -48 -12 -115 l0 -103 45 0 c33 0 45 4 45 15 0
9 -9 15 -25 15 -21 0 -25 5 -25 30 0 20 8 35 25 46 14 9 25 23 25 31 0 11 -7
13 -25 9 -22 -6 -25 -3 -25 18 0 18 6 25 22 28 13 2 24 11 26 21 3 13 -4 17
-30 17 -19 0 -39 -5 -46 -12z"/>
<path d="M1470 345 c0 -108 1 -115 20 -115 19 0 20 7 20 95 0 78 3 95 15 95
12 0 15 -17 15 -95 0 -79 3 -95 15 -95 13 0 15 17 13 113 l-3 112 -47 2 -48 2
0 -114z"/>
<path d="M1590 444 c0 -9 9 -18 20 -21 18 -5 20 -14 20 -99 0 -77 3 -94 15
-94 12 0 15 17 15 94 0 85 2 94 20 99 11 3 20 12 20 21 0 13 -11 16 -55 16
-44 0 -55 -3 -55 -16z"/>
<path d="M1720 345 c0 -96 3 -115 15 -115 12 0 15 19 15 115 0 96 -3 115 -15
115 -12 0 -15 -19 -15 -115z"/>
<path d="M1780 344 c0 -95 3 -114 15 -114 12 0 15 17 15 95 0 78 3 95 15 95
12 0 15 -17 15 -95 0 -88 1 -95 20 -95 19 0 20 7 20 104 0 115 -4 122 -62 123
l-38 1 0 -114z"/>
<path d="M1911 441 c-15 -28 -14 -184 1 -199 7 -7 29 -12 50 -12 l38 0 0 75
c0 73 -1 75 -21 65 -25 -14 -36 -40 -20 -50 16 -9 11 -52 -6 -58 -10 -3 -13
17 -13 77 0 65 3 81 15 81 8 0 15 -7 15 -16 0 -9 6 -14 13 -11 6 2 12 17 12
33 0 26 -4 29 -37 32 -28 2 -39 -1 -47 -17z"/>
</g>
</svg>
